<?xml version="1.0" encoding="utf-8"?>
<!-- Generator: Adobe Illustrator 17.0.0, SVG Export Plug-In . SVG Version: 6.00 Build 0)  -->
<!DOCTYPE svg PUBLIC "-//W3C//DTD SVG 1.1//EN" "http://www.w3.org/Graphics/SVG/1.1/DTD/svg11.dtd">
<svg version="1.1" id="Layer_1" xmlns="http://www.w3.org/2000/svg" xmlns:xlink="http://www.w3.org/1999/xlink" x="0px" y="0px"
	 width="500px" height="500px" viewBox="0 0 500 500" enable-background="new 0 0 500 500" xml:space="preserve">
<polyline fill="#BEE6F3" points="72.5,66.667 85,66.667 85,79.167 72.5,79.167 72.5,66.667 "/>
<rect x="89.5" y="66.667" fill="#BEE6F3" width="12.5" height="12.5"/>
<rect x="110.5" y="66.667" fill="#BEE6F3" width="12.5" height="12.5"/>
<rect x="131.5" y="66.667" fill="#BEE6F3" width="12.5" height="12.5"/>
<polyline fill="#BEE6F3" points="152.5,79.167 152.5,66.667 165,66.667 165,79.167 152.5,79.167 "/>
<rect x="173.5" y="66.667" fill="#BEE6F3" width="12.5" height="12.5"/>
<rect x="72.5" y="83.667" fill="#BEE6F3" width="12.5" height="12.5"/>
<rect x="89.5" y="83.667" fill="#BEE6F3" width="12.5" height="12.5"/>
<rect x="110.5" y="83.667" fill="#BEE6F3" width="12.5" height="12.5"/>
<rect x="131.5" y="83.667" fill="#BEE6F3" width="12.5" height="12.5"/>
<polyline fill="#BEE6F3" points="159.667,96.167 152.5,96.167 152.5,83.667 165,83.667 165,96.167 159.667,96.167 "/>
<rect x="173.5" y="83.667" fill="#BEE6F3" width="12.5" height="12.5"/>
<rect x="72.5" y="100.667" fill="#BEE6F3" width="12.5" height="12.5"/>
<rect x="89.5" y="100.667" fill="#BEE6F3" width="12.5" height="12.5"/>
<rect x="110.5" y="100.667" fill="#BEE6F3" width="12.5" height="12.5"/>
<rect x="131.5" y="100.667" fill="#BEE6F3" width="12.5" height="12.5"/>
<rect x="152.5" y="100.667" fill="#BEE6F3" width="12.5" height="12.5"/>
<rect x="173.5" y="100.667" fill="#BEE6F3" width="12.5" height="12.5"/>
<rect x="72.5" y="119.667" fill="#BEE6F3" width="12.5" height="12.5"/>
<rect x="89.5" y="119.667" fill="#BEE6F3" width="12.5" height="12.5"/>
<rect x="110.5" y="119.667" fill="#BEE6F3" width="12.5" height="12.5"/>
<rect x="131.5" y="119.667" fill="#BEE6F3" width="12.5" height="12.5"/>
<rect x="152.5" y="119.667" fill="#BEE6F3" width="12.5" height="12.5"/>
<rect x="173.5" y="119.667" fill="#BEE6F3" width="12.5" height="12.5"/>
<text transform="matrix(1 0 0 1 75.75 63.8335)" font-family="'MyriadPro-Regular'" font-size="8">1</text>
<text transform="matrix(1 0 0 1 93 63.8335)" font-family="'MyriadPro-Regular'" font-size="8" letter-spacing="1">1</text>
<text transform="matrix(1 0 0 1 114 63.8335)" font-family="'MyriadPro-Regular'" font-size="8" letter-spacing="1">1</text>
<text transform="matrix(1 0 0 1 134 63.8335)" font-family="'MyriadPro-Regular'" font-size="8" letter-spacing="1">1</text>
<text transform="matrix(1 0 0 1 155.5 63.8335)" font-family="'MyriadPro-Regular'" font-size="8" letter-spacing="1">1</text>
<text transform="matrix(1 0 0 1 177.5 63.8335)" font-family="'MyriadPro-Regular'" font-size="8" letter-spacing="1">1</text>
</svg>
